<?xml version="1.0" encoding="UTF-8"?>
<!DOCTYPE svg PUBLIC "-//W3C//DTD SVG 1.1//EN" "http://www.w3.org/Graphics/SVG/1.1/DTD/svg11.dtd">
<!-- Creator: CorelDRAW -->
<svg xmlns="http://www.w3.org/2000/svg" xml:space="preserve" width="96.2799mm" height="50.3767mm" version="1.1" style="shape-rendering:geometricPrecision; text-rendering:geometricPrecision; image-rendering:optimizeQuality; fill-rule:evenodd; clip-rule:evenodd"
viewBox="0 0 637.05 333.33"
 xmlns:xlink="http://www.w3.org/1999/xlink"
 xmlns:xodm="http://www.corel.com/coreldraw/odm/2003">
 <defs>
  <style type="text/css">
   <![CDATA[
    .fil0 {fill:#FEFEFE}
   ]]>
  </style>
 </defs>
 <g id="Camada_x0020_1">
  <metadata id="CorelCorpID_0Corel-Layer"/>
  <g id="_2561009754048">
   <path class="fil0" d="M-0 333.33l178.22 -168.1c9.66,3.73 20.16,5.77 31.13,5.77 47.82,0 86.58,-38.76 86.58,-86.58 0,-9.19 -1.44,-18.05 -4.09,-26.36l41.99 -39.61 73.03 0 -55.44 127.13 -7.81 17.9 -343.63 169.85zm435.82 -314.88l30.09 0 -49.8 109.21 -39.53 19.54 33.4 -72.6 25.84 -56.15zm46.07 0l25.16 0 -33.8 80.97 -33.87 16.74 42.51 -97.71zm37.45 0l117.72 0 -150.1 74.19 32.38 -74.19z"/>
   <path class="fil0" d="M93.19 66.34l0 35.98 -13.27 0 0 34.98 -39.8 0 0 -83.19c0,-15.65 4.82,-28.54 14.47,-38.76 9.65,-10.22 21.81,-15.34 36.45,-15.34 16.15,0 29.65,6.93 40.54,20.8l-32.7 23.89c-1.84,-4.99 -5.09,-7.5 -9.72,-7.5 -6.16,0 -9.25,4.19 -9.25,12.6l0 16.55 13.27 0z"/>
   <path class="fil0" d="M191.94 37.59l0 98.1 -39.8 0 0 -134.08 51.03 0c15.55,0 27.61,3.85 36.18,11.59 9.55,8.68 14.31,19.63 14.31,32.93 0,13.57 -5.9,25.03 -17.69,34.34l22.95 55.21 -41.81 0 -19.33 -43.15 0 -34.44 3.15 0c8.34,0 12.53,-3.62 12.53,-10.89 0,-6.4 -4.82,-9.62 -14.51,-9.62l-7 0z"/>
  </g>
 </g>
</svg>
