<?xml version="1.0" encoding="UTF-8"?>
<!DOCTYPE svg PUBLIC "-//W3C//DTD SVG 1.1//EN" "http://www.w3.org/Graphics/SVG/1.1/DTD/svg11.dtd">
<!-- Creator: CorelDRAW -->
<svg xmlns="http://www.w3.org/2000/svg" xml:space="preserve" width="157.559mm" height="49.0285mm" version="1.1" style="shape-rendering:geometricPrecision; text-rendering:geometricPrecision; image-rendering:optimizeQuality; fill-rule:evenodd; clip-rule:evenodd"
viewBox="0 0 2195.82 683.28"
 xmlns:xlink="http://www.w3.org/1999/xlink"
 xmlns:xodm="http://www.corel.com/coreldraw/odm/2003">
 <defs>
  <style type="text/css">
   <![CDATA[
    .fil5 {fill:url(#id0)}
    .fil1 {fill:url(#id1)}
    .fil3 {fill:url(#id2)}
    .fil2 {fill:url(#id3)}
    .fil4 {fill:url(#id4)}
    .fil10 {fill:url(#id5)}
    .fil7 {fill:url(#id6)}
    .fil0 {fill:url(#id7)}
    .fil9 {fill:url(#id8)}
    .fil6 {fill:url(#id9)}
    .fil8 {fill:url(#id10)}
   ]]>
  </style>
  <linearGradient id="id0" gradientUnits="userSpaceOnUse" x1="674.4" y1="676.09" x2="674.41" y2="10.23">
   <stop offset="0" style="stop-opacity:1; stop-color:turquoise"/>
   <stop offset="0.419608" style="stop-opacity:1; stop-color:steelblue"/>
   <stop offset="1" style="stop-opacity:1; stop-color:#663399"/>
  </linearGradient>
  <linearGradient id="id1" gradientUnits="userSpaceOnUse" xlink:href="#id0" x1="674.4" y1="676.09" x2="674.41" y2="10.23">
  </linearGradient>
  <linearGradient id="id2" gradientUnits="userSpaceOnUse" xlink:href="#id0" x1="674.4" y1="676.09" x2="674.41" y2="10.23">
  </linearGradient>
  <linearGradient id="id3" gradientUnits="userSpaceOnUse" xlink:href="#id0" x1="674.4" y1="676.09" x2="674.41" y2="10.23">
  </linearGradient>
  <linearGradient id="id4" gradientUnits="userSpaceOnUse" xlink:href="#id0" x1="674.4" y1="676.09" x2="674.41" y2="10.23">
  </linearGradient>
  <linearGradient id="id5" gradientUnits="userSpaceOnUse" xlink:href="#id0" x1="674.4" y1="676.09" x2="674.41" y2="10.23">
  </linearGradient>
  <linearGradient id="id6" gradientUnits="userSpaceOnUse" xlink:href="#id0" x1="674.4" y1="676.09" x2="674.41" y2="10.23">
  </linearGradient>
  <linearGradient id="id7" gradientUnits="userSpaceOnUse" xlink:href="#id0" x1="674.4" y1="676.09" x2="674.41" y2="10.23">
  </linearGradient>
  <linearGradient id="id8" gradientUnits="userSpaceOnUse" xlink:href="#id0" x1="674.4" y1="676.09" x2="674.41" y2="10.23">
  </linearGradient>
  <linearGradient id="id9" gradientUnits="userSpaceOnUse" xlink:href="#id0" x1="674.4" y1="676.09" x2="674.41" y2="10.23">
  </linearGradient>
  <linearGradient id="id10" gradientUnits="userSpaceOnUse" xlink:href="#id0" x1="674.4" y1="676.09" x2="674.41" y2="10.23">
  </linearGradient>
 </defs>
 <g id="Camada_x0020_1">
  <metadata id="CorelCorpID_0Corel-Layer"/>
  <g id="_2561356873184">
   <polygon class="fil0" points="758.24,474.97 758.24,676.09 674.4,676.09 674.4,474.97 610.05,474.97 610.05,393.68 822.17,393.68 822.17,474.97 "/>
   <path class="fil1" d="M592.9 392.41l0 80.59c-6.07,-1.76 -10.8,-2.68 -14.04,-2.68 -6.35,0 -11.86,2.33 -16.37,7.06 -4.59,4.66 -6.85,10.3 -6.85,16.94 0,5.65 2.47,12.77 7.48,21.45l6.42 11.15c11.64,20.11 17.43,39.52 17.43,58.29 0,27.38 -9.74,50.6 -29.28,69.58 -19.55,18.98 -43.4,28.51 -71.55,28.51 -13.55,0 -26.89,-3.18 -40.15,-9.46l0 -81.72c7.97,5.15 15.1,7.76 21.31,7.76 7.34,0 13.41,-2.12 18.35,-6.28 4.87,-4.23 7.34,-9.53 7.34,-15.88 0,-4.09 -3.88,-13.13 -11.71,-27.03 -12.49,-22.09 -18.77,-44.1 -18.77,-66.19 0,-26.6 9.46,-49.54 28.44,-68.73 18.91,-19.26 41.56,-28.86 67.88,-28.86 11.57,0 22.93,1.83 34.08,5.5z"/>
   <path class="fil2" d="M311.83 534.25l0 74.52 -24.13 0 0 67.32 -83.83 0 0 -179.59c0,-34.65 9.46,-61.6 28.44,-80.8 18.98,-19.19 45.66,-28.79 80.02,-28.79 33.17,0 57.65,8.68 73.53,26.11 15.88,17.43 23.78,44.25 23.78,80.59l0 182.48 -83.83 0 0 -176.91c0,-10.87 -1.34,-18.35 -3.95,-22.58 -2.68,-4.16 -7.41,-6.28 -14.25,-6.28 -13.27,0 -19.9,9.6 -19.9,28.86l0 35.07 24.13 0z"/>
   <path class="fil3" d="M111.78 526.63l0 75.79 -27.94 0 0 73.67 -83.83 0 0 -175.22c0,-32.95 10.16,-60.12 30.48,-81.65 20.32,-21.52 45.94,-32.32 76.78,-32.32 34.01,0 62.45,14.61 85.38,43.82l-68.87 50.31c-3.88,-10.52 -10.73,-15.81 -20.46,-15.81 -12.98,0 -19.48,8.82 -19.48,26.53l0 34.86 27.94 0z"/>
   <path class="fil4" d="M1297.43 0c39.94,0 74.24,14.54 102.81,43.61 28.58,29.14 42.9,63.93 42.9,104.44 0,41.28 -14.39,76.28 -43.19,105.07 -28.79,28.86 -63.79,43.26 -105,43.26 -40.93,0 -75.86,-14.47 -104.79,-43.4 -28.93,-29 -43.4,-63.93 -43.4,-104.93 0,-41.35 14.54,-76.35 43.68,-105 29.14,-28.72 64.85,-43.04 106.98,-43.04zm-2.47 83.41c-17.22,0 -31.9,6.35 -44.03,18.98 -12.14,12.63 -18.21,27.94 -18.21,45.8 0,17.85 6.07,33.17 18.28,45.8 12.21,12.63 26.88,18.98 43.96,18.98 17.36,0 32.11,-6.28 44.17,-18.91 12.07,-12.56 18.06,-27.87 18.06,-45.87 0,-17.99 -6,-33.31 -18.06,-45.87 -12.07,-12.63 -26.82,-18.91 -44.17,-18.91z"/>
   <path class="fil5" d="M922.02 6.77l102.32 0c60.76,0 91.17,23.92 91.17,71.84 0,23.71 -10.37,43.4 -31.19,59.14 30.13,13.13 45.16,36.48 45.16,70.14 0,25.76 -8.89,46.36 -26.67,61.68 -8.61,7.27 -17.92,12.35 -27.87,15.24 -9.88,2.89 -23.22,4.37 -40.01,4.37l-15.95 0 0 -72.4 14.25 0c8.47,0 14.39,-1.06 17.85,-3.25 3.46,-2.12 5.15,-5.93 5.15,-11.36 0,-9.17 -7.06,-13.76 -21.1,-13.76l-16.16 0 0 -75.22c15.52,0 23.29,-5.36 23.29,-15.95 0,-9.81 -6.99,-14.68 -21.03,-14.68l-15.38 0 0 206.62 -83.83 0 0 -282.41z"/>
   <polygon class="fil6" points="865.5,6.77 865.5,289.18 781.66,289.18 781.66,6.77 "/>
   <path class="fil7" d="M654.01 151.22l87.93 2.26c-5.79,45.59 -21.59,80.8 -47.28,105.64 -25.76,24.84 -59.28,37.26 -100.63,37.26 -42.06,0 -77.27,-14.11 -105.64,-42.27 -28.3,-28.23 -42.48,-63.23 -42.48,-105 0,-42.06 14.47,-77.41 43.33,-106.06 28.93,-28.72 64.5,-43.04 106.84,-43.04 41.63,0 76.42,14.04 104.23,42.13 19.34,19.41 33.03,46.5 41,81.15l-89.97 6.07c-10.09,-30.63 -29.21,-45.94 -57.44,-45.94 -17.99,0 -32.81,6.21 -44.53,18.56 -11.64,12.42 -17.5,28.16 -17.5,47.28 0,18.42 5.72,33.66 17.22,45.66 11.5,12.07 25.97,18.06 43.54,18.06 17.85,0 32.04,-5.29 42.62,-15.95 10.58,-10.66 16.86,-25.9 18.77,-45.8z"/>
   <path class="fil8" d="M409.5 116.86l0 62.66 -54.55 0c-7.41,0 -12.7,1.13 -15.74,3.32 -3.11,2.26 -4.66,6 -4.66,11.29 0,6 1.55,9.88 4.73,11.78 3.18,1.91 9.6,2.82 19.34,2.82l56.38 0 0 80.45 -65.84 0c-31.05,0 -54.83,-7.41 -71.27,-22.16 -16.44,-14.82 -24.63,-36.2 -24.63,-64.15l0 -110.65c0,-27.1 7.76,-48.13 23.29,-63.09 15.59,-14.89 37.4,-22.37 65.63,-22.37l72.82 0 0 81.29 -53.49 0c-14.33,0 -21.45,4.73 -21.45,14.11 0,5.5 1.69,9.32 5.08,11.43 3.46,2.19 9.53,3.25 18.21,3.25l46.15 0z"/>
   <path class="fil9" d="M89.76 82.56l0 206.62 -83.83 0 0 -282.41 107.47 0c32.74,0 58.15,8.12 76.21,24.42 20.11,18.28 30.13,41.35 30.13,69.37 0,28.58 -12.42,52.71 -37.26,72.33l48.34 116.29 -88.07 0 -40.72 -90.89 0 -72.54 6.63 0c17.57,0 26.39,-7.62 26.39,-22.93 0,-13.48 -10.16,-20.25 -30.56,-20.25l-14.75 0z"/>
   <path class="fil10" d="M854.02 672.46l375.37 -354.06c20.35,7.85 42.46,12.16 65.57,12.16 100.72,0 182.36,-81.65 182.36,-182.36 0,-19.36 -3.03,-38.02 -8.62,-55.53l88.45 -83.43 153.83 0 -116.76 267.77 -16.44 37.71 -723.76 357.74zm917.94 -663.22l63.38 0 -104.89 230.02 -83.27 41.16 70.36 -152.91 54.42 -118.27zm97.03 0l53 0 -71.19 170.53 -71.34 35.26 89.53 -205.8zm78.87 0l247.95 0 -316.16 156.27 68.21 -156.27z"/>
  </g>
 </g>
</svg>
